<svg width="216" height="96" viewBox="0 0 216 96" fill="none" xmlns="http://www.w3.org/2000/svg">
<path d="M85.9741 54.6734H83.5981L82.1461 63.0114H78.2741L79.7261 54.6734H77.2841L77.8781 51.3734H86.5681L85.9741 54.6734ZM77.6141 62.9454L68.2861 61.9554H77.7901L77.6141 62.9454ZM78.3621 58.6994L69.0341 57.7094H78.5381L78.3621 58.6994ZM78.7361 56.5874L69.4081 55.5974H78.9121L78.7361 56.5874ZM76.6241 54.4754L67.2961 53.4854H76.8001L76.6241 54.4754ZM76.9981 52.3634L67.6701 51.3734H77.1521L76.9981 52.3634ZM77.9881 60.8114L68.6601 59.8214H78.1641L77.9881 60.8114Z" fill="white"/>
<path d="M97.0852 51.1534C98.6692 51.1534 99.7985 51.4614 100.473 52.0774C101.148 52.6787 101.485 53.6247 101.485 54.9154C101.485 55.5461 101.404 56.3087 101.243 57.2034C100.876 59.3154 100.231 60.8554 99.3072 61.8234C98.3832 62.7914 96.9312 63.2754 94.9512 63.2754C93.3965 63.2754 92.2892 62.9747 91.6292 62.3734C90.9692 61.7574 90.6392 60.8114 90.6392 59.5354C90.6392 58.8754 90.7198 58.0981 90.8812 57.2034C91.2478 55.0914 91.8858 53.5587 92.7952 52.6054C93.7045 51.6374 95.1345 51.1534 97.0852 51.1534ZM95.5892 59.9314C96.0145 59.9314 96.3298 59.8801 96.5352 59.7774C96.7552 59.6747 96.9018 59.4474 96.9752 59.0954L97.8112 54.4974H96.4692C96.0585 54.4974 95.7358 54.5487 95.5012 54.6514C95.2812 54.7541 95.1492 54.9741 95.1052 55.3114L94.2912 59.9314H95.5892ZM90.1112 57.7094C90.0525 58.1641 90.0158 58.4721 90.0012 58.6334L81.3332 57.7094H90.1112ZM90.5292 55.5974L90.3312 56.5214L81.7292 55.5974H90.5292ZM89.9792 59.8214C89.9792 60.0561 90.0085 60.3641 90.0672 60.7454L81.4212 59.8214H89.9792ZM91.2992 53.4854C91.1232 53.8667 90.9985 54.1601 90.9252 54.3654L82.6092 53.4854H91.2992ZM90.4412 61.9554C90.6172 62.3074 90.8078 62.5787 91.0132 62.7694L83.3352 61.9554H90.4412ZM93.2132 51.3734C92.8612 51.5787 92.5605 51.8207 92.3112 52.0994L85.5572 51.3734H93.2132Z" fill="white"/>
<path d="M112.591 63.0114L111.557 59.2054H111.425L110.765 63.0114H107.069L109.093 51.3734H112.811L112.173 54.9374H112.283L114.549 51.3734H118.575L114.879 57.0714L116.617 63.0114H112.591ZM106.343 62.9454L97.0145 61.9554H106.519L106.343 62.9454ZM107.091 58.6994L97.7625 57.7094H107.267L107.091 58.6994ZM107.465 56.5874L98.1365 55.5974H107.641L107.465 56.5874ZM107.839 54.4754L98.5105 53.4854H108.015L107.839 54.4754ZM108.213 52.3634L98.8845 51.3734H108.367L108.213 52.3634ZM106.717 60.8114L97.3885 59.8214H106.893L106.717 60.8114Z" fill="white"/>
<path d="M130.218 58.2814H126.94L126.676 59.7774H130.746L130.174 63.0114H122.408L124.432 51.3734H132.176L131.142 54.6734H127.556L127.292 56.1694H130.592L130.218 58.2814ZM121.682 62.9454L112.354 61.9554H121.858L121.682 62.9454ZM122.43 58.6994L113.102 57.7094H122.606L122.43 58.6994ZM122.804 56.5874L113.476 55.5974H122.98L122.804 56.5874ZM123.178 54.4754L113.85 53.4854H123.354L123.178 54.4754ZM123.552 52.3634L114.224 51.3734H123.706L123.552 52.3634ZM122.056 60.8114L112.728 59.8214H122.232L122.056 60.8114Z" fill="white"/>
<path d="M143.666 63.0114L141.4 58.6554H141.312L140.542 63.0114H136.846L138.87 51.3734H141.862L144.15 55.7074H144.282L145.03 51.3734H148.704L146.658 63.0114H143.666ZM136.12 62.9454L126.792 61.9554H136.296L136.12 62.9454ZM136.868 58.6994L127.54 57.7094H137.044L136.868 58.6994ZM137.242 56.5874L127.914 55.5974H137.418L137.242 56.5874ZM137.616 54.4754L128.288 53.4854H137.792L137.616 54.4754ZM137.99 52.3634L128.662 51.3734H138.144L137.99 52.3634ZM136.494 60.8114L127.166 59.8214H136.67L136.494 60.8114Z" fill="#FFF492"/>
<path d="M40.8997 22.7425C40.6706 22.7425 40.4258 22.779 40.1653 22.8519C39.9153 22.9248 39.6653 23.0654 39.4153 23.2737C39.1653 23.4821 38.9206 23.7737 38.681 24.1487C38.4518 24.5133 38.2487 24.9977 38.0716 25.6019C37.9049 26.206 37.7695 26.9404 37.6653 27.805C37.5612 28.6592 37.5091 29.68 37.5091 30.8675C37.5091 32.0446 37.5612 33.0706 37.6653 33.9456C37.7695 34.8206 37.9049 35.5706 38.0716 36.1956C38.2487 36.8206 38.4518 37.3362 38.681 37.7425C38.9206 38.1383 39.1653 38.4508 39.4153 38.68C39.6653 38.9092 39.9153 39.0706 40.1653 39.1644C40.4258 39.2477 40.6706 39.2894 40.8997 39.2894C41.2122 39.2894 41.5039 39.2217 41.7747 39.0862V33.1019C41.7747 32.9352 41.8112 32.7737 41.8841 32.6175C41.957 32.4508 42.1289 32.3675 42.3997 32.3675H44.0403C44.1341 32.3675 44.2278 32.3727 44.3216 32.3831C44.4153 32.3935 44.4987 32.4248 44.5716 32.4769C44.6445 32.5185 44.7018 32.5915 44.7435 32.6956C44.7851 32.7894 44.806 32.9248 44.806 33.1019V42.0706C44.806 42.2477 44.7851 42.3883 44.7435 42.4925C44.7018 42.5862 44.6445 42.6592 44.5716 42.7112C44.4987 42.7529 44.4153 42.779 44.3216 42.7894C44.2278 42.7998 44.1341 42.805 44.0403 42.805H42.3997C42.2643 42.805 42.1549 42.7842 42.0716 42.7425C41.9987 42.7008 41.9362 42.6435 41.8841 42.5706C41.8424 42.4977 41.8112 42.4196 41.7903 42.3362C41.7799 42.2425 41.7747 42.154 41.7747 42.0706V41.6175C41.4414 41.8571 41.0716 42.0862 40.6653 42.305C40.2591 42.5237 39.8112 42.7165 39.3216 42.8831C38.8424 43.0498 38.3216 43.18 37.7591 43.2738C37.1966 43.3675 36.5924 43.4144 35.9466 43.4144C35.1862 43.4144 34.4049 43.3467 33.6028 43.2112C32.8008 43.0758 32.0195 42.8362 31.2591 42.4925C30.5091 42.1383 29.7956 41.6592 29.1185 41.055C28.4414 40.4508 27.8476 39.6852 27.3372 38.7581C26.8372 37.831 26.4362 36.7217 26.1341 35.43C25.8424 34.1279 25.6966 32.6071 25.6966 30.8675C25.6966 29.3883 25.8424 28.0862 26.1341 26.9612C26.4362 25.8258 26.8424 24.8415 27.3528 24.0081C27.8633 23.1748 28.457 22.4769 29.1341 21.9144C29.8216 21.3519 30.5508 20.9039 31.3216 20.5706C32.0924 20.2269 32.8841 19.9873 33.6966 19.8519C34.5195 19.706 35.3216 19.6331 36.1028 19.6331C36.957 19.6331 37.7695 19.7008 38.5403 19.8362C39.3112 19.9717 40.0143 20.1435 40.6497 20.3519C41.2956 20.5602 41.8685 20.7946 42.3685 21.055C42.8685 21.3154 43.2799 21.5706 43.6028 21.8206C43.6341 21.8519 43.6706 21.8883 43.7122 21.93C43.7539 21.9612 43.7747 22.0029 43.7747 22.055C43.7747 22.0967 43.7591 22.1487 43.7278 22.2112L43.056 23.2737C42.9935 23.3675 42.9206 23.4144 42.8372 23.4144C42.7747 23.4144 42.6862 23.3831 42.5716 23.3206C42.4674 23.2477 42.332 23.1696 42.1653 23.0862C41.9987 22.9925 41.8112 22.9144 41.6028 22.8519C41.3945 22.779 41.1601 22.7425 40.8997 22.7425ZM34.8685 30.8675C34.8685 32.0654 34.9258 33.1175 35.0403 34.0237C35.1653 34.9196 35.332 35.7008 35.5403 36.3675C35.7591 37.0237 36.0091 37.5758 36.2903 38.0237C36.582 38.4612 36.8893 38.8258 37.2122 39.1175C37.5456 39.3987 37.8841 39.6175 38.2278 39.7737C38.582 39.93 38.931 40.0498 39.2747 40.1331C39.1601 40.0706 39.0039 39.9717 38.806 39.8362C38.6081 39.6904 38.3893 39.4821 38.1497 39.2112C37.9206 38.9404 37.6862 38.5862 37.4466 38.1487C37.2174 37.7112 37.0039 37.1644 36.806 36.5081C36.6185 35.8415 36.4622 35.0498 36.3372 34.1331C36.2226 33.206 36.1653 32.1175 36.1653 30.8675C36.1653 29.6279 36.2226 28.555 36.3372 27.6487C36.4622 26.7321 36.6185 25.956 36.806 25.3206C37.0039 24.6748 37.2174 24.1487 37.4466 23.7425C37.6862 23.3362 37.9206 23.0081 38.1497 22.7581C38.3893 22.5081 38.6081 22.3258 38.806 22.2112C39.0039 22.0862 39.1601 21.9873 39.2747 21.9144C38.931 21.9977 38.582 22.1123 38.2278 22.2581C37.8841 22.3935 37.5456 22.5967 37.2122 22.8675C36.8893 23.1279 36.582 23.4665 36.2903 23.8831C36.0091 24.2998 35.7591 24.8258 35.5403 25.4612C35.332 26.0967 35.1653 26.8571 35.0403 27.7425C34.9258 28.6279 34.8685 29.6696 34.8685 30.8675Z" fill="white"/>
<path d="M57.681 20.3675C57.8685 20.3675 58.0299 20.3935 58.1653 20.4456C58.3008 20.4873 58.4206 20.5654 58.5247 20.68C58.6393 20.7946 58.7435 20.9456 58.8372 21.1331C58.931 21.3206 59.0299 21.5498 59.1341 21.8206L66.306 40.9769C66.3581 41.1227 66.3945 41.2529 66.4153 41.3675C66.4362 41.4821 66.4466 41.5967 66.4466 41.7112C66.4466 42.0862 66.332 42.3623 66.1028 42.5394C65.8841 42.7165 65.6497 42.805 65.3997 42.805H56.5403C56.2695 42.805 56.0403 42.7737 55.8528 42.7112C55.6758 42.6383 55.5247 42.555 55.3997 42.4612C55.2747 42.3675 55.1758 42.2685 55.1028 42.1644C55.0403 42.0602 54.9987 41.9665 54.9778 41.8831L54.806 41.3362H50.4153L50.306 41.805C50.2747 41.9612 50.2383 42.1019 50.1966 42.2269C50.1549 42.3415 50.1028 42.4456 50.0403 42.5394C49.9778 42.6227 49.8893 42.6904 49.7747 42.7425C49.6706 42.7842 49.5299 42.805 49.3528 42.805H47.7435C47.4101 42.805 47.2435 42.6748 47.2435 42.4144C47.2435 42.3206 47.2591 42.2112 47.2903 42.0862C47.332 41.9508 47.3841 41.7946 47.4466 41.6175L53.9778 21.8519C54.1341 21.3623 54.3112 20.9977 54.5091 20.7581C54.707 20.5185 54.9883 20.3883 55.3528 20.3675H57.681ZM50.8997 39.4144H54.2747L52.5403 33.305L50.8997 39.4144ZM57.8528 22.18C57.7695 21.9612 57.6653 21.8258 57.5403 21.7737C57.4258 21.7112 57.2226 21.68 56.931 21.68H56.3841L63.7747 41.4925H64.5247C64.7122 41.4925 64.8372 41.456 64.8997 41.3831C64.9726 41.2998 64.9674 41.154 64.8841 40.9456L57.8528 22.18Z" fill="#73BCFF"/>
<path d="M73.8879 25.1956C74.0025 24.0602 74.3098 23.1123 74.8098 22.3519C75.3098 21.5914 75.9295 20.9873 76.6691 20.5394C77.4087 20.081 78.2316 19.7581 79.1379 19.5706C80.0441 19.3831 80.9608 19.2894 81.8879 19.2894C82.6483 19.2894 83.3931 19.3206 84.1223 19.3831C84.8514 19.4456 85.5233 19.5185 86.1379 19.6019C86.7525 19.6852 87.2837 19.7685 87.7316 19.8519C88.1795 19.9352 88.5077 19.9977 88.716 20.0394C88.841 20.0706 88.9035 20.1279 88.9035 20.2112C88.9035 20.2321 88.8931 20.2946 88.8723 20.3987L88.6379 21.5237C88.617 21.5967 88.5858 21.6435 88.5441 21.6644C88.5129 21.6748 88.4816 21.68 88.4504 21.68C87.992 21.68 87.5962 21.7581 87.2629 21.9144C86.9295 22.0706 86.6535 22.2894 86.4348 22.5706C86.216 22.8519 86.0493 23.1852 85.9348 23.5706C85.8202 23.956 85.742 24.3727 85.7004 24.8206L84.7629 36.18C84.6795 37.0967 84.4452 37.9612 84.0598 38.7737C83.6743 39.5862 83.1379 40.2946 82.4504 40.8987C81.7629 41.5029 80.9191 41.9821 79.9191 42.3362C78.9191 42.6904 77.7733 42.8675 76.4816 42.8675C75.617 42.8675 74.7837 42.8258 73.9816 42.7425C73.1795 42.6592 72.4504 42.5602 71.7941 42.4456C71.1379 42.331 70.5702 42.2217 70.091 42.1175C69.6223 42.0029 69.2837 41.9196 69.0754 41.8675C68.9504 41.8362 68.8879 41.779 68.8879 41.6956C68.8879 41.6852 68.8983 41.6279 68.9191 41.5237L69.1848 40.3362C69.2056 40.2633 69.2316 40.2217 69.2629 40.2112C69.3045 40.1904 69.341 40.18 69.3723 40.18C69.8306 40.18 70.2525 40.1123 70.6379 39.9769C71.0337 39.8415 71.3775 39.6175 71.6691 39.305C71.9608 38.9925 72.2004 38.5862 72.3879 38.0862C72.5858 37.5862 72.7212 36.9717 72.7941 36.2425L73.8879 25.1956ZM78.716 41.3831C79.5077 41.1956 80.19 40.9196 80.7629 40.555C81.3462 40.18 81.8254 39.7529 82.2004 39.2737C82.5858 38.7946 82.8775 38.2894 83.0754 37.7581C83.2837 37.2165 83.4087 36.6904 83.4504 36.18L84.3879 24.8206C84.4191 24.404 84.4816 24.0081 84.5754 23.6331C84.6795 23.2581 84.815 22.9196 84.9816 22.6175C85.1587 22.3154 85.3775 22.0602 85.6379 21.8519C85.9087 21.6331 86.2264 21.4821 86.591 21.3987C85.8514 21.43 85.2577 21.555 84.8098 21.7737C84.3723 21.9925 84.0337 22.2685 83.7941 22.6019C83.5545 22.9248 83.3879 23.2842 83.2941 23.68C83.2108 24.0758 83.1535 24.456 83.1223 24.8206L82.1691 36.18C82.1275 36.6592 82.0181 37.1487 81.841 37.6487C81.6743 38.1383 81.44 38.6123 81.1379 39.0706C80.8462 39.5185 80.4973 39.9456 80.091 40.3519C79.6848 40.7477 79.2264 41.0915 78.716 41.3831Z" fill="white"/>
<path d="M92.2616 24.18C92.3761 23.0446 92.6834 22.0967 93.1834 21.3362C93.6834 20.5758 94.3032 19.9717 95.0428 19.5237C95.7824 19.0654 96.6053 18.7425 97.5116 18.555C98.4178 18.3675 99.3345 18.2737 100.262 18.2737C101.022 18.2737 101.767 18.305 102.496 18.3675C103.225 18.43 103.897 18.5029 104.512 18.5862C105.126 18.6696 105.657 18.7529 106.105 18.8362C106.553 18.9196 106.881 18.9821 107.09 19.0237C107.215 19.055 107.277 19.1123 107.277 19.1956C107.277 19.2164 107.267 19.2789 107.246 19.3831L107.012 20.5081C106.991 20.581 106.959 20.6279 106.918 20.6487C106.887 20.6592 106.855 20.6644 106.824 20.6644C106.366 20.6644 105.97 20.7425 105.637 20.8987C105.303 21.055 105.027 21.2737 104.808 21.555C104.59 21.8362 104.423 22.1696 104.308 22.555C104.194 22.9404 104.116 23.3571 104.074 23.805L103.137 35.1644C103.053 36.081 102.819 36.9456 102.433 37.7581C102.048 38.5706 101.512 39.279 100.824 39.8831C100.137 40.4873 99.2928 40.9665 98.2928 41.3206C97.2928 41.6748 96.147 41.8519 94.8553 41.8519C93.9907 41.8519 93.1574 41.8102 92.3553 41.7269C91.5532 41.6435 90.8241 41.5446 90.1678 41.43C89.5116 41.3154 88.9439 41.206 88.4647 41.1019C87.9959 40.9873 87.6574 40.904 87.4491 40.8519C87.3241 40.8206 87.2616 40.7633 87.2616 40.68C87.2616 40.6696 87.272 40.6123 87.2928 40.5081L87.5584 39.3206C87.5793 39.2477 87.6053 39.206 87.6366 39.1956C87.6782 39.1748 87.7147 39.1644 87.7459 39.1644C88.2043 39.1644 88.6261 39.0967 89.0116 38.9612C89.4074 38.8258 89.7511 38.6019 90.0428 38.2894C90.3345 37.9769 90.5741 37.5706 90.7616 37.0706C90.9595 36.5706 91.0949 35.956 91.1678 35.2269L92.2616 24.18ZM97.0897 40.3675C97.8814 40.18 98.5636 39.904 99.1366 39.5394C99.7199 39.1644 100.199 38.7373 100.574 38.2581C100.959 37.779 101.251 37.2737 101.449 36.7425C101.657 36.2008 101.782 35.6748 101.824 35.1644L102.762 23.805C102.793 23.3883 102.855 22.9925 102.949 22.6175C103.053 22.2425 103.189 21.904 103.355 21.6019C103.532 21.2998 103.751 21.0446 104.012 20.8362C104.282 20.6175 104.6 20.4664 104.965 20.3831C104.225 20.4144 103.631 20.5394 103.183 20.7581C102.746 20.9769 102.407 21.2529 102.168 21.5862C101.928 21.9092 101.762 22.2685 101.668 22.6644C101.584 23.0602 101.527 23.4404 101.496 23.805L100.543 35.1644C100.501 35.6435 100.392 36.1331 100.215 36.6331C100.048 37.1227 99.8136 37.5967 99.5116 38.055C99.2199 38.5029 98.8709 38.93 98.4647 39.3362C98.0584 39.7321 97.6001 40.0758 97.0897 40.3675Z" fill="white"/>
<path d="M114.39 21.5081C114.39 21.1435 114.421 20.8258 114.483 20.555C114.546 20.2842 114.666 20.0602 114.843 19.8831C115.02 19.6956 115.265 19.555 115.577 19.4612C115.89 19.3675 116.296 19.3206 116.796 19.3206H123.765C124.369 19.3206 124.827 19.4092 125.14 19.5862C125.463 19.7633 125.686 19.9873 125.811 20.2581C125.947 20.5185 126.02 20.7998 126.03 21.1019C126.041 21.3935 126.046 21.6644 126.046 21.9144V39.6175C126.765 39.5133 127.431 39.4196 128.046 39.3362C128.306 39.305 128.567 39.2737 128.827 39.2425C129.098 39.2008 129.343 39.1644 129.561 39.1331C129.791 39.1019 129.994 39.081 130.171 39.0706C130.348 39.0498 130.478 39.0394 130.561 39.0394C130.739 39.0394 130.879 39.0758 130.983 39.1487C131.098 39.2112 131.155 39.3467 131.155 39.555V40.9925C131.155 41.18 131.072 41.3571 130.905 41.5237C130.749 41.68 130.494 41.7581 130.14 41.7581H116.765C116.275 41.7581 115.874 41.7112 115.561 41.6175C115.259 41.5237 115.02 41.3883 114.843 41.2112C114.666 41.0342 114.546 40.8102 114.483 40.5394C114.421 40.2685 114.39 39.9508 114.39 39.5862V21.5081ZM124.718 21.6331C124.718 21.404 124.702 21.2217 124.671 21.0862C124.64 20.9508 124.577 20.8519 124.483 20.7894C124.39 20.7165 124.265 20.6748 124.108 20.6644C123.952 20.6435 123.749 20.6331 123.499 20.6331V39.9769L124.718 39.7894V21.6331Z" fill="#E05FE2"/>
<path d="M146.04 27.2581V39.93C147.051 39.7842 147.978 39.654 148.822 39.5394C149.176 39.4873 149.53 39.4404 149.884 39.3987C150.249 39.3467 150.582 39.2998 150.884 39.2581C151.186 39.2165 151.447 39.1852 151.665 39.1644C151.884 39.1435 152.035 39.1331 152.118 39.1331C152.296 39.1331 152.447 39.1696 152.572 39.2425C152.697 39.305 152.759 39.4404 152.759 39.6487V41.0862C152.759 41.2737 152.712 41.4508 152.618 41.6175C152.525 41.7737 152.301 41.8519 151.947 41.8519H136.759C136.27 41.8519 135.868 41.805 135.556 41.7112C135.254 41.6175 135.014 41.4821 134.837 41.305C134.66 41.1279 134.54 40.904 134.478 40.6331C134.415 40.3623 134.384 40.0446 134.384 39.68V22.1331C134.384 21.5394 134.452 21.0654 134.587 20.7112C134.723 20.3467 134.915 20.0706 135.165 19.8831C135.415 19.6852 135.712 19.5602 136.056 19.5081C136.41 19.4456 136.801 19.4144 137.228 19.4144H151.353C151.707 19.4144 151.931 19.4977 152.025 19.6644C152.129 19.8206 152.181 19.9977 152.181 20.1956V21.305C152.181 21.5133 152.124 21.654 152.009 21.7269C151.905 21.7894 151.764 21.8206 151.587 21.8206C151.483 21.8206 151.322 21.8102 151.103 21.7894C150.895 21.7685 150.65 21.7425 150.368 21.7112C150.087 21.6696 149.785 21.6279 149.462 21.5862C149.139 21.5446 148.816 21.4977 148.493 21.4456C147.743 21.331 146.926 21.2008 146.04 21.055V25.0237H151.853C152.072 25.0237 152.181 25.1331 152.181 25.3519V26.9144C152.181 27.1435 152.072 27.2581 151.853 27.2581H146.04ZM144.712 20.8362L143.493 20.6644V40.2737L144.712 40.1175V20.8362Z" fill="white"/>
<path d="M159.382 24.3206C159.496 23.1852 159.803 22.2373 160.303 21.4769C160.803 20.7165 161.423 20.1123 162.163 19.6644C162.902 19.206 163.725 18.8831 164.632 18.6956C165.538 18.5081 166.454 18.4144 167.382 18.4144C168.142 18.4144 168.887 18.4456 169.616 18.5081C170.345 18.5706 171.017 18.6435 171.632 18.7269C172.246 18.8102 172.777 18.8935 173.225 18.9769C173.673 19.0602 174.001 19.1227 174.21 19.1644C174.335 19.1956 174.397 19.2529 174.397 19.3362C174.397 19.3571 174.387 19.4196 174.366 19.5237L174.132 20.6487C174.111 20.7217 174.079 20.7685 174.038 20.7894C174.007 20.7998 173.975 20.805 173.944 20.805C173.486 20.805 173.09 20.8831 172.757 21.0394C172.423 21.1956 172.147 21.4144 171.928 21.6956C171.71 21.9769 171.543 22.3102 171.428 22.6956C171.314 23.081 171.236 23.4977 171.194 23.9456L170.257 35.305C170.173 36.2217 169.939 37.0862 169.553 37.8987C169.168 38.7112 168.632 39.4196 167.944 40.0237C167.257 40.6279 166.413 41.1071 165.413 41.4612C164.413 41.8154 163.267 41.9925 161.975 41.9925C161.111 41.9925 160.277 41.9508 159.475 41.8675C158.673 41.7842 157.944 41.6852 157.288 41.5706C156.632 41.456 156.064 41.3467 155.585 41.2425C155.116 41.1279 154.777 41.0446 154.569 40.9925C154.444 40.9612 154.382 40.904 154.382 40.8206C154.382 40.8102 154.392 40.7529 154.413 40.6487L154.678 39.4612C154.699 39.3883 154.725 39.3467 154.757 39.3362C154.798 39.3154 154.835 39.305 154.866 39.305C155.324 39.305 155.746 39.2373 156.132 39.1019C156.527 38.9665 156.871 38.7425 157.163 38.43C157.454 38.1175 157.694 37.7112 157.882 37.2112C158.079 36.7112 158.215 36.0967 158.288 35.3675L159.382 24.3206ZM164.21 40.5081C165.001 40.3206 165.684 40.0446 166.257 39.68C166.84 39.305 167.319 38.8779 167.694 38.3987C168.079 37.9196 168.371 37.4144 168.569 36.8831C168.777 36.3415 168.902 35.8154 168.944 35.305L169.882 23.9456C169.913 23.529 169.975 23.1331 170.069 22.7581C170.173 22.3831 170.309 22.0446 170.475 21.7425C170.652 21.4404 170.871 21.1852 171.132 20.9769C171.402 20.7581 171.72 20.6071 172.085 20.5237C171.345 20.555 170.751 20.68 170.303 20.8987C169.866 21.1175 169.527 21.3935 169.288 21.7269C169.048 22.0498 168.882 22.4092 168.788 22.805C168.704 23.2008 168.647 23.581 168.616 23.9456L167.663 35.305C167.621 35.7842 167.512 36.2737 167.335 36.7737C167.168 37.2633 166.934 37.7373 166.632 38.1956C166.34 38.6435 165.991 39.0706 165.585 39.4769C165.178 39.8727 164.72 40.2165 164.21 40.5081Z" fill="white"/>
<path d="M175.288 25.6019C175.402 24.4665 175.71 23.5185 176.21 22.7581C176.71 21.9977 177.329 21.3935 178.069 20.9456C178.809 20.4873 179.632 20.1644 180.538 19.9769C181.444 19.7894 182.361 19.6956 183.288 19.6956C184.048 19.6956 184.793 19.7269 185.522 19.7894C186.251 19.8519 186.923 19.9248 187.538 20.0081C188.152 20.0915 188.684 20.1748 189.132 20.2581C189.579 20.3415 189.908 20.404 190.116 20.4456C190.241 20.4769 190.303 20.5342 190.303 20.6175C190.303 20.6383 190.293 20.7008 190.272 20.805L190.038 21.93C190.017 22.0029 189.986 22.0498 189.944 22.0706C189.913 22.081 189.882 22.0862 189.85 22.0862C189.392 22.0862 188.996 22.1644 188.663 22.3206C188.329 22.4769 188.053 22.6956 187.835 22.9769C187.616 23.2581 187.449 23.5915 187.335 23.9769C187.22 24.3623 187.142 24.779 187.1 25.2269L186.163 36.5862C186.079 37.5029 185.845 38.3675 185.46 39.18C185.074 39.9925 184.538 40.7008 183.85 41.305C183.163 41.9092 182.319 42.3883 181.319 42.7425C180.319 43.0967 179.173 43.2737 177.882 43.2737C177.017 43.2737 176.184 43.2321 175.382 43.1487C174.579 43.0654 173.85 42.9665 173.194 42.8519C172.538 42.7373 171.97 42.6279 171.491 42.5237C171.022 42.4092 170.684 42.3258 170.475 42.2737C170.35 42.2425 170.288 42.1852 170.288 42.1019C170.288 42.0915 170.298 42.0342 170.319 41.93L170.585 40.7425C170.605 40.6696 170.632 40.6279 170.663 40.6175C170.704 40.5967 170.741 40.5862 170.772 40.5862C171.23 40.5862 171.652 40.5185 172.038 40.3831C172.434 40.2477 172.777 40.0237 173.069 39.7112C173.361 39.3987 173.6 38.9925 173.788 38.4925C173.986 37.9925 174.121 37.3779 174.194 36.6487L175.288 25.6019ZM180.116 41.7894C180.908 41.6019 181.59 41.3258 182.163 40.9612C182.746 40.5862 183.225 40.1592 183.6 39.68C183.986 39.2008 184.277 38.6956 184.475 38.1644C184.684 37.6227 184.809 37.0967 184.85 36.5862L185.788 25.2269C185.819 24.8102 185.882 24.4144 185.975 24.0394C186.079 23.6644 186.215 23.3258 186.382 23.0237C186.559 22.7217 186.777 22.4665 187.038 22.2581C187.309 22.0394 187.626 21.8883 187.991 21.805C187.251 21.8362 186.658 21.9612 186.21 22.18C185.772 22.3987 185.434 22.6748 185.194 23.0081C184.954 23.331 184.788 23.6904 184.694 24.0862C184.611 24.4821 184.553 24.8623 184.522 25.2269L183.569 36.5862C183.527 37.0654 183.418 37.555 183.241 38.055C183.074 38.5446 182.84 39.0185 182.538 39.4769C182.246 39.9248 181.897 40.3519 181.491 40.7581C181.085 41.154 180.626 41.4977 180.116 41.7894Z" fill="#FFF492"/>
<line x1="56.4934" y1="71.8919" x2="176.763" y2="71.8919" stroke="white"/>
<line x1="100.033" y1="77.2263" x2="190.303" y2="77.2263" stroke="white"/>
</svg>
